<?xml version="1.0" standalone="no"?><svg xmlns="http://www.w3.org/2000/svg" viewBox="0 0 1440 320"><path fill="#2E6E53" fill-opacity="1" d="M0,192L30,208C60,224,120,256,180,234.7C240,213,300,139,360,138.7C420,139,480,213,540,208C600,203,660,117,720,90.7C780,64,840,96,900,128C960,160,1020,192,1080,197.3C1140,203,1200,181,1260,176C1320,171,1380,181,1410,186.7L1440,192L1440,320L1410,320C1380,320,1320,320,1260,320C1200,320,1140,320,1080,320C1020,320,960,320,900,320C840,320,780,320,720,320C660,320,600,320,540,320C480,320,420,320,360,320C300,320,240,320,180,320C120,320,60,320,30,320L0,320Z"></path></svg>